<svg xmlns="http://www.w3.org/2000/svg" version="1.1" xmlns:xlink="http://www.w3.org/1999/xlink" xmlns:svgjs="http://svgjs.dev/svgjs" width="2000" height="1250" viewBox="0 0 2000 1250"><g transform="matrix(1,0,0,1,0,0)"><svg viewBox="0 0 576 360" data-background-color="#3b4131" preserveAspectRatio="xMidYMid meet" height="1250" width="2000" xmlns="http://www.w3.org/2000/svg" xmlns:xlink="http://www.w3.org/1999/xlink"><g id="tight-bounds" transform="matrix(1,0,0,1,0,0)"><svg viewBox="0 0 576 360" height="360" width="576"><g><svg></svg></g><g><svg viewBox="0 0 576 360" height="360" width="576"><g><path d="M132.115 90l155.885-90 155.885 90v180l-155.885 90-155.885-90zM141.706 264.463l146.294 84.463 146.294-84.463v-168.926l-146.294-84.463-146.294 84.463z" fill="#ffffff" fill-rule="nonzero" stroke="none" stroke-width="1" stroke-linecap="butt" stroke-linejoin="miter" stroke-miterlimit="10" stroke-dasharray="" stroke-dashoffset="0" font-family="none" font-weight="none" font-size="none" text-anchor="none" style="mix-blend-mode: normal" data-fill-palette-color="tertiary"></path></g><g transform="matrix(1,0,0,1,190.13364015713842,99)"><svg viewBox="0 0 195.7327196857232 162" height="162" width="195.7327196857232"><g><svg viewBox="0 0 195.7327196857232 162" height="162" width="195.7327196857232"><g><svg viewBox="0 0 230.4 190.69269593724695" height="162" width="195.7327196857232"><g><svg viewBox="0 0 230.4 190.69269593724695" height="190.69269593724695" width="230.4"><g id="textblocktransform"><svg viewBox="0 0 230.4 190.69269593724695" height="190.69269593724695" width="230.4" id="textblock"><g><svg viewBox="0 0 230.4 145.95764263911718" height="145.95764263911718" width="230.4"><g transform="matrix(1,0,0,1,0,0)"><svg width="230.4" viewBox="-0.25 -38.9 67.53999999999999 43.16" height="145.95764263911718" data-palette-color="#ffffff"><path d="M31.3-17.5L31.3-17.5Q31.3-15.09 30.68-12.85 30.05-10.62 28.91-8.68 27.76-6.74 26.17-5.14 24.58-3.54 22.63-2.39 20.68-1.25 18.44-0.62 16.21 0 13.79 0L13.79 0 3.25 0 3.25-35.01 13.79-35.01Q16.21-35.01 18.44-34.39 20.68-33.76 22.63-32.62 24.58-31.47 26.17-29.87 27.76-28.27 28.91-26.33 30.05-24.39 30.68-22.16 31.3-19.92 31.3-17.5ZM24.29-17.5L24.29-17.5Q24.29-19.68 23.47-21.58 22.66-23.49 21.23-24.91 19.8-26.34 17.88-27.17 15.97-28 13.79-28L13.79-28 10.3-28 10.3-7.01 13.79-7.01Q15.97-7.01 17.88-7.82 19.8-8.64 21.23-10.07 22.66-11.5 23.47-13.42 24.29-15.33 24.29-17.5ZM63.79-17.36L63.79-3.54Q61.35-1.46 58.35-0.35 55.34 0.76 52.1 0.76L52.1 0.76Q49.61 0.76 47.3 0.11 44.99-0.54 42.99-1.72 40.99-2.91 39.33-4.55 37.67-6.2 36.5-8.22 35.32-10.23 34.68-12.55 34.03-14.87 34.03-17.36L34.03-17.36Q34.03-19.85 34.68-22.14 35.32-24.44 36.5-26.45 37.67-28.47 39.33-30.11 40.99-31.76 42.99-32.93 44.99-34.11 47.3-34.75 49.61-35.4 52.1-35.4L52.1-35.4Q55.34-35.4 58.35-34.29 61.35-33.18 63.79-31.1L63.79-31.1 60.13-25Q58.54-26.61 56.47-27.53 54.39-28.44 52.1-28.44L52.1-28.44Q49.8-28.44 47.79-27.56 45.77-26.68 44.26-25.18 42.75-23.68 41.87-21.67 40.99-19.65 40.99-17.36L40.99-17.36Q40.99-15.04 41.87-13.01 42.75-10.99 44.26-9.47 45.77-7.96 47.79-7.08 49.8-6.2 52.1-6.2L52.1-6.2Q53.42-6.2 54.66-6.52 55.91-6.84 57.03-7.4L57.03-7.4 57.03-17.36 63.79-17.36Z" opacity="1" transform="matrix(1,0,0,1,0,0)" fill="#ffffff" class="wordmark-text-0" data-fill-palette-color="primary" id="text-0"></path></svg></g></svg></g><g transform="matrix(1,0,0,1,3,175.51065512092043)"><svg viewBox="0 0 224.4 15.18204081632653" height="15.18204081632653" width="224.4"><g transform="matrix(1,0,0,1,0,0)"><svg width="224.4" viewBox="-3.5 -33 809.46 55.7" height="15.18204081632653" data-palette-color="#ffffff"><path d="M4.5 0L0 0 0-29.5 4.5-29.5 4.5 0ZM10.5 0L6 0 6-29.5 10.5-29.5 10.5 0ZM13.5 0L12 0 12-29.5 13.5-29.5 13.5 0ZM16.5 0L15 0 15-29.5 16.5-29.5 16.5 0ZM24 0L22.5 0 22.5-29.5 24-29.5 24 0ZM8.85 15.95L8.85 4.35 9.9 4.35 12.75 10.05 15.65 4.35 16.65 4.35 16.65 15.95 15.4 15.95 15.4 7.2 12.9 11.9 12.4 11.9 10.05 7.25 10.05 15.95 8.85 15.95ZM27 0L25.5 0 25.5-29.5 27-29.5 27 0ZM34.5 0L33 0 33-29.5 34.5-29.5 34.5 0ZM37.5 0L36 0 36-29.5 37.5-29.5 37.5 0ZM45 0L43.5 0 43.5-29.5 45-29.5 45 0ZM52.5 0L51 0 51-29.5 52.5-29.5 52.5 0ZM58.5 0L54 0 54-29.5 58.5-29.5 58.5 0ZM61.5 0L60 0 60-29.5 61.5-29.5 61.5 0ZM64.5 0L63 0 63-29.5 64.5-29.5 64.5 0ZM72 0L70.5 0 70.5-29.5 72-29.5 72 0ZM78 0L73.5 0 73.5-29.5 78-29.5 78 0ZM52.4 7.25L52.4 7.25Q54.2 7.25 55.15 8.2L55.15 8.2Q56.1 9.15 56.1 11.45L56.1 11.45 56.1 15.95 54.65 15.95 54.65 14.65Q53.9 16.15 51.75 16.15L51.75 16.15Q50.35 16.15 49.55 15.5L49.55 15.5Q48.75 14.85 48.75 13.8L48.75 13.8Q48.75 12.9 49.35 12.25L49.35 12.25Q49.9 11.6 50.9 11.2L50.9 11.2Q51.85 10.85 53.05 10.85L53.05 10.85Q54.1 10.85 54.95 10.95L54.95 10.95Q54.85 9.55 54.2 8.95L54.2 8.95Q53.55 8.35 52.3 8.35L52.3 8.35Q51.65 8.35 51.1 8.6L51.1 8.6Q50.5 8.85 50 9.3L50 9.3 49.35 8.45Q50.55 7.25 52.4 7.25ZM51.9 15.15L51.9 15.15Q53.3 15.15 54.1 14.3L54.1 14.3Q54.9 13.5 54.95 12L54.95 12Q54.1 11.85 53.15 11.85L53.15 11.85Q51.75 11.85 50.9 12.35L50.9 12.35Q50.1 12.8 50.1 13.75L50.1 13.75Q50.1 15.15 51.9 15.15ZM81 0L79.5 0 79.5-29.5 81-29.5 81 0ZM88.5 0L87 0 87-29.5 88.5-29.5 88.5 0ZM91.5 0L90 0 90-29.5 91.5-29.5 91.5 0ZM99 0L97.5 0 97.5-29.5 99-29.5 99 0ZM106.5 0L105 0 105-29.5 106.5-29.5 106.5 0ZM112.5 0L108 0 108-29.5 112.5-29.5 112.5 0ZM115.5 0L114 0 114-29.5 115.5-29.5 115.5 0ZM118.5 0L117 0 117-29.5 118.5-29.5 118.5 0ZM121.5 0L120 0 120-29.5 121.5-29.5 121.5 0ZM132 0L127.5 0 127.5-29.5 132-29.5 132 0ZM109.05 16L105.55 11.7 104.45 12.75 104.45 15.95 103.09 15.95 103.09 3.6 104.59 3.6 104.59 3.7Q104.5 3.85 104.45 3.95L104.45 3.95Q104.45 4.1 104.45 4.4L104.45 4.4 104.45 11.35 108.7 7.4Q109.15 7.5 109.7 7.5L109.7 7.5 110.15 7.5 106.59 10.9 110.75 15.95 109.05 16ZM134.99 0L133.49 0 133.49-29.5 134.99-29.5 134.99 0ZM142.49 0L140.99 0 140.99-29.5 142.49-29.5 142.49 0ZM145.49 0L143.99 0 143.99-29.5 145.49-29.5 145.49 0ZM152.99 0L151.49 0 151.49-29.5 152.99-29.5 152.99 0ZM160.49 0L158.99 0 158.99-29.5 160.49-29.5 160.49 0ZM166.49 0L161.99 0 161.99-29.5 166.49-29.5 166.49 0ZM169.49 0L167.99 0 167.99-29.5 169.49-29.5 169.49 0ZM175.49 0L170.99 0 170.99-29.5 175.49-29.5 175.49 0ZM182.99 0L181.49 0 181.49-29.5 182.99-29.5 182.99 0ZM185.99 0L184.49 0 184.49-29.5 185.99-29.5 185.99 0ZM160.89 16.15L160.89 16.15Q158.99 16.15 157.89 15L157.89 15Q156.74 13.85 156.74 11.75L156.74 11.75Q156.74 10.35 157.29 9.3L157.29 9.3Q157.79 8.3 158.69 7.8L158.69 7.8Q159.54 7.25 160.64 7.25L160.64 7.25Q162.19 7.25 163.14 8.25L163.14 8.25Q164.09 9.3 164.09 11.3L164.09 11.3Q164.09 11.5 164.09 11.9L164.09 11.9 158.04 11.9Q158.09 13.45 158.89 14.25L158.89 14.25Q159.69 15.05 160.94 15.05L160.94 15.05Q162.29 15.05 163.14 14.1L163.14 14.1 163.89 14.85Q162.79 16.15 160.89 16.15ZM158.09 10.85L162.74 10.85Q162.74 9.65 162.14 8.95L162.14 8.95Q161.54 8.25 160.54 8.25L160.54 8.25Q159.64 8.25 158.94 8.9L158.94 8.9Q158.24 9.55 158.09 10.85L158.09 10.85ZM188.99 0L187.49 0 187.49-29.5 188.99-29.5 188.99 0ZM199.49 0L194.99 0 194.99-29.5 199.49-29.5 199.49 0ZM202.49 0L200.99 0 200.99-29.5 202.49-29.5 202.49 0ZM208.49 0L203.99 0 203.99-29.5 208.49-29.5 208.49 0ZM211.49 0L209.99 0 209.99-29.5 211.49-29.5 211.49 0ZM214.49 0L212.99 0 212.99-29.5 214.49-29.5 214.49 0ZM221.99 0L220.49 0 220.49-29.5 221.99-29.5 221.99 0ZM224.99 0L223.49 0 223.49-29.5 224.99-29.5 224.99 0ZM232.49 0L230.99 0 230.99-29.5 232.49-29.5 232.49 0ZM239.99 0L238.49 0 238.49-29.5 239.99-29.5 239.99 0ZM242.99 0L241.49 0 241.49-29.5 242.99-29.5 242.99 0ZM248.99 0L244.49 0 244.49-29.5 248.99-29.5 248.99 0ZM251.99 0L250.49 0 250.49-29.5 251.99-29.5 251.99 0ZM262.49 0L257.99 0 257.99-29.5 262.49-29.5 262.49 0ZM265.49 0L263.99 0 263.99-29.5 265.49-29.5 265.49 0ZM237.19 15.95L237.19 14.85 239.39 14.85 239.39 8.55 237.29 8.55 237.29 7.45 240.69 7.45 240.69 14.85 242.69 14.85 242.69 15.95 237.19 15.95ZM239.99 5.65L239.99 5.65Q239.59 5.65 239.29 5.4L239.29 5.4Q239.04 5.1 239.04 4.7L239.04 4.7Q239.04 4.3 239.29 4.05L239.29 4.05Q239.54 3.75 239.99 3.75L239.99 3.75Q240.34 3.75 240.64 4.05L240.64 4.05Q240.94 4.35 240.94 4.7L240.94 4.7Q240.94 5.1 240.64 5.4L240.64 5.4Q240.34 5.65 239.99 5.65ZM268.49 0L266.99 0 266.99-29.5 268.49-29.5 268.49 0ZM275.99 0L274.49 0 274.49-29.5 275.99-29.5 275.99 0ZM278.99 0L277.49 0 277.49-29.5 278.99-29.5 278.99 0ZM286.49 0L284.99 0 284.99-29.5 286.49-29.5 286.49 0ZM293.99 0L292.49 0 292.49-29.5 293.99-29.5 293.99 0ZM296.99 0L295.49 0 295.49-29.5 296.99-29.5 296.99 0ZM299.99 0L298.49 0 298.49-29.5 299.99-29.5 299.99 0ZM305.99 0L301.49 0 301.49-29.5 305.99-29.5 305.99 0ZM311.99 0L307.49 0 307.49-29.5 311.99-29.5 311.99 0ZM319.49 0L317.99 0 317.99-29.5 319.49-29.5 319.49 0ZM297.19 14.1L297.59 15.15Q296.38 16.1 294.88 16.1L294.88 16.1Q293.49 16.1 292.88 15.25L292.88 15.25Q292.29 14.35 292.29 12.45L292.29 12.45Q292.29 12.1 292.34 11.35L292.34 11.35 292.54 8.55 290.63 8.55 290.63 7.45 292.59 7.45 292.74 5.2 294.19 4.95 294.38 4.95 294.38 5.05Q294.29 5.2 294.24 5.35L294.24 5.35Q294.13 5.5 294.13 5.75L294.13 5.75 293.94 7.45 296.74 7.45 296.74 8.55 293.84 8.55 293.69 11.45Q293.63 12.2 293.63 12.4L293.63 12.4Q293.63 13.9 293.99 14.45L293.99 14.45Q294.34 14.95 295.09 14.95L295.09 14.95Q295.63 14.95 296.13 14.75L296.13 14.75Q296.59 14.55 297.19 14.1L297.19 14.1ZM322.48 0L320.98 0 320.98-29.5 322.48-29.5 322.48 0ZM332.98 0L328.48 0 328.48-29.5 332.98-29.5 332.98 0ZM335.98 0L334.48 0 334.48-29.5 335.98-29.5 335.98 0ZM341.98 0L337.48 0 337.48-29.5 341.98-29.5 341.98 0ZM344.98 0L343.48 0 343.48-29.5 344.98-29.5 344.98 0ZM347.98 0L346.48 0 346.48-29.5 347.98-29.5 347.98 0ZM355.48 0L353.98 0 353.98-29.5 355.48-29.5 355.48 0ZM358.48 0L356.98 0 356.98-29.5 358.48-29.5 358.48 0ZM365.98 0L364.48 0 364.48-29.5 365.98-29.5 365.98 0ZM373.48 0L371.98 0 371.98-29.5 373.48-29.5 373.48 0ZM379.48 0L374.98 0 374.98-29.5 379.48-29.5 379.48 0ZM382.48 0L380.98 0 380.98-29.5 382.48-29.5 382.48 0ZM385.48 0L383.98 0 383.98-29.5 385.48-29.5 385.48 0ZM392.98 0L391.48 0 391.48-29.5 392.98-29.5 392.98 0ZM398.98 0L394.48 0 394.48-29.5 398.98-29.5 398.98 0ZM373.38 7.25L373.38 7.25Q375.18 7.25 376.13 8.2L376.13 8.2Q377.08 9.15 377.08 11.45L377.08 11.45 377.08 15.95 375.63 15.95 375.63 14.65Q374.88 16.15 372.73 16.15L372.73 16.15Q371.33 16.15 370.53 15.5L370.53 15.5Q369.73 14.85 369.73 13.8L369.73 13.8Q369.73 12.9 370.33 12.25L370.33 12.25Q370.88 11.6 371.88 11.2L371.88 11.2Q372.83 10.85 374.03 10.85L374.03 10.85Q375.08 10.85 375.93 10.95L375.93 10.95Q375.83 9.55 375.18 8.95L375.18 8.95Q374.53 8.35 373.28 8.35L373.28 8.35Q372.63 8.35 372.08 8.6L372.08 8.6Q371.48 8.85 370.98 9.3L370.98 9.3 370.33 8.45Q371.53 7.25 373.38 7.25ZM372.88 15.15L372.88 15.15Q374.28 15.15 375.08 14.3L375.08 14.3Q375.88 13.5 375.93 12L375.93 12Q375.08 11.85 374.13 11.85L374.13 11.85Q372.73 11.85 371.88 12.35L371.88 12.35Q371.08 12.8 371.08 13.75L371.08 13.75Q371.08 15.15 372.88 15.15ZM401.98 0L400.48 0 400.48-29.5 401.98-29.5 401.98 0ZM412.48 0L407.98 0 407.98-29.5 412.48-29.5 412.48 0ZM415.48 0L413.98 0 413.98-29.5 415.48-29.5 415.48 0ZM421.48 0L416.98 0 416.98-29.5 421.48-29.5 421.48 0ZM424.48 0L422.98 0 422.98-29.5 424.48-29.5 424.48 0ZM427.48 0L425.98 0 425.98-29.5 427.48-29.5 427.48 0ZM434.98 0L433.48 0 433.48-29.5 434.98-29.5 434.98 0ZM437.98 0L436.48 0 436.48-29.5 437.98-29.5 437.98 0ZM445.48 0L443.98 0 443.98-29.5 445.48-29.5 445.48 0ZM452.98 0L451.48 0 451.48-29.5 452.98-29.5 452.98 0ZM458.98 0L454.48 0 454.48-29.5 458.98-29.5 458.98 0ZM461.98 0L460.48 0 460.48-29.5 461.98-29.5 461.98 0ZM464.98 0L463.48 0 463.48-29.5 464.98-29.5 464.98 0ZM470.98 0L466.48 0 466.48-29.5 470.98-29.5 470.98 0ZM478.48 0L476.98 0 476.98-29.5 478.48-29.5 478.48 0ZM454.58 7.25L454.58 7.25Q455.93 7.25 456.83 8.2L456.83 8.2 456.23 9.2 456.18 9.4 456.03 9.3Q455.98 9.1 455.93 9L455.93 9Q455.83 8.85 455.58 8.7L455.58 8.7Q455.13 8.4 454.48 8.4L454.48 8.4Q453.83 8.4 453.23 8.75L453.23 8.75Q452.63 9.05 452.28 9.75L452.28 9.75Q451.88 10.45 451.88 11.45L451.88 11.45 451.88 15.95 450.53 15.95 450.53 7.45 451.93 7.45 451.88 9Q452.23 8.2 452.98 7.7L452.98 7.7Q453.73 7.25 454.58 7.25ZM481.47 0L479.97 0 479.97-29.5 481.47-29.5 481.47 0ZM488.97 0L487.47 0 487.47-29.5 488.97-29.5 488.97 0ZM491.97 0L490.47 0 490.47-29.5 491.97-29.5 491.97 0ZM499.47 0L497.97 0 497.97-29.5 499.47-29.5 499.47 0ZM506.97 0L505.47 0 505.47-29.5 506.97-29.5 506.97 0ZM512.97 0L508.47 0 508.47-29.5 512.97-29.5 512.97 0ZM515.97 0L514.47 0 514.47-29.5 515.97-29.5 515.97 0ZM521.97 0L517.47 0 517.47-29.5 521.97-29.5 521.97 0ZM529.47 0L527.97 0 527.97-29.5 529.47-29.5 529.47 0ZM532.47 0L530.97 0 530.97-29.5 532.47-29.5 532.47 0ZM507.37 16.15L507.37 16.15Q505.47 16.15 504.37 15L504.37 15Q503.22 13.85 503.22 11.75L503.22 11.75Q503.22 10.35 503.77 9.3L503.77 9.3Q504.27 8.3 505.17 7.8L505.17 7.8Q506.02 7.25 507.12 7.25L507.12 7.25Q508.67 7.25 509.62 8.25L509.62 8.25Q510.57 9.3 510.57 11.3L510.57 11.3Q510.57 11.5 510.57 11.9L510.57 11.9 504.52 11.9Q504.57 13.45 505.37 14.25L505.37 14.25Q506.17 15.05 507.42 15.05L507.42 15.05Q508.77 15.05 509.62 14.1L509.62 14.1 510.37 14.85Q509.27 16.15 507.37 16.15ZM504.57 10.85L509.22 10.85Q509.22 9.65 508.62 8.95L508.62 8.95Q508.02 8.25 507.02 8.25L507.02 8.25Q506.12 8.25 505.42 8.9L505.42 8.9Q504.72 9.55 504.57 10.85L504.57 10.85ZM535.47 0L533.97 0 533.97-29.5 535.47-29.5 535.47 0ZM542.97 0L541.47 0 541.47-29.5 542.97-29.5 542.97 0ZM545.97 0L544.47 0 544.47-29.5 545.97-29.5 545.97 0ZM553.47 0L551.97 0 551.97-29.5 553.47-29.5 553.47 0ZM560.97 0L559.47 0 559.47-29.5 560.97-29.5 560.97 0ZM566.97 0L562.47 0 562.47-29.5 566.97-29.5 566.97 0ZM569.97 0L568.47 0 568.47-29.5 569.97-29.5 569.97 0ZM572.97 0L571.47 0 571.47-29.5 572.97-29.5 572.97 0ZM580.47 0L578.97 0 578.97-29.5 580.47-29.5 580.47 0ZM586.47 0L581.97 0 581.97-29.5 586.47-29.5 586.47 0ZM560.87 7.25L560.87 7.25Q562.67 7.25 563.62 8.2L563.62 8.2Q564.57 9.15 564.57 11.45L564.57 11.45 564.57 15.95 563.12 15.95 563.12 14.65Q562.37 16.15 560.22 16.15L560.22 16.15Q558.82 16.15 558.02 15.5L558.02 15.5Q557.22 14.85 557.22 13.8L557.22 13.8Q557.22 12.9 557.82 12.25L557.82 12.25Q558.37 11.6 559.37 11.2L559.37 11.2Q560.32 10.85 561.52 10.85L561.52 10.85Q562.57 10.85 563.42 10.95L563.42 10.95Q563.32 9.55 562.67 8.95L562.67 8.95Q562.02 8.35 560.77 8.35L560.77 8.35Q560.12 8.35 559.57 8.6L559.57 8.6Q558.97 8.85 558.47 9.3L558.47 9.3 557.82 8.45Q559.02 7.25 560.87 7.25ZM560.37 15.15L560.37 15.15Q561.77 15.15 562.57 14.3L562.57 14.3Q563.37 13.5 563.42 12L563.42 12Q562.57 11.85 561.62 11.85L561.62 11.85Q560.22 11.85 559.37 12.35L559.37 12.35Q558.57 12.8 558.57 13.75L558.57 13.75Q558.57 15.15 560.37 15.15ZM589.47 0L587.97 0 587.97-29.5 589.47-29.5 589.47 0ZM596.97 0L595.47 0 595.47-29.5 596.97-29.5 596.97 0ZM599.97 0L598.47 0 598.47-29.5 599.97-29.5 599.97 0ZM607.47 0L605.97 0 605.97-29.5 607.47-29.5 607.47 0ZM614.97 0L613.47 0 613.47-29.5 614.97-29.5 614.97 0ZM617.97 0L616.47 0 616.47-29.5 617.97-29.5 617.97 0ZM623.97 0L619.47 0 619.47-29.5 623.97-29.5 623.97 0ZM626.97 0L625.47 0 625.47-29.5 626.97-29.5 626.97 0ZM629.97 0L628.47 0 628.47-29.5 629.97-29.5 629.97 0ZM640.47 0L635.97 0 635.97-29.5 640.47-29.5 640.47 0ZM611.77 15.95L611.77 14.85 614.32 14.85 614.32 4.65 611.92 4.65 611.92 3.6 615.67 3.6 615.67 14.85 618.17 14.85 618.17 15.95 611.77 15.95ZM643.46 0L641.96 0 641.96-29.5 643.46-29.5 643.46 0ZM650.96 0L649.46 0 649.46-29.5 650.96-29.5 650.96 0ZM653.96 0L652.46 0 652.46-29.5 653.96-29.5 653.96 0ZM661.46 0L659.96 0 659.96-29.5 661.46-29.5 661.46 0ZM668.96 0L667.46 0 667.46-29.5 668.96-29.5 668.96 0ZM671.96 0L670.46 0 670.46-29.5 671.96-29.5 671.96 0ZM677.96 0L673.46 0 673.46-29.5 677.96-29.5 677.96 0ZM680.96 0L679.46 0 679.46-29.5 680.96-29.5 680.96 0ZM691.46 0L686.96 0 686.96-29.5 691.46-29.5 691.46 0ZM694.46 0L692.96 0 692.96-29.5 694.46-29.5 694.46 0ZM666.16 15.95L666.16 14.85 668.36 14.85 668.36 8.55 666.26 8.55 666.26 7.45 669.66 7.45 669.66 14.85 671.66 14.85 671.66 15.95 666.16 15.95ZM668.96 5.65L668.96 5.65Q668.56 5.65 668.26 5.4L668.26 5.4Q668.01 5.1 668.01 4.7L668.01 4.7Q668.01 4.3 668.26 4.05L668.26 4.05Q668.51 3.75 668.96 3.75L668.96 3.75Q669.31 3.75 669.61 4.05L669.61 4.05Q669.91 4.35 669.91 4.7L669.91 4.7Q669.91 5.1 669.61 5.4L669.61 5.4Q669.31 5.65 668.96 5.65ZM697.46 0L695.96 0 695.96-29.5 697.46-29.5 697.46 0ZM704.96 0L703.46 0 703.46-29.5 704.96-29.5 704.96 0ZM707.96 0L706.46 0 706.46-29.5 707.96-29.5 707.96 0ZM715.46 0L713.96 0 713.96-29.5 715.46-29.5 715.46 0ZM722.96 0L721.46 0 721.46-29.5 722.96-29.5 722.96 0ZM725.96 0L724.46 0 724.46-29.5 725.96-29.5 725.96 0ZM728.96 0L727.46 0 727.46-29.5 728.96-29.5 728.96 0ZM734.96 0L730.46 0 730.46-29.5 734.96-29.5 734.96 0ZM740.96 0L736.46 0 736.46-29.5 740.96-29.5 740.96 0ZM748.46 0L746.96 0 746.96-29.5 748.46-29.5 748.46 0ZM726.16 14.1L726.56 15.15Q725.36 16.1 723.86 16.1L723.86 16.1Q722.46 16.1 721.86 15.25L721.86 15.25Q721.26 14.35 721.26 12.45L721.26 12.45Q721.26 12.1 721.31 11.35L721.31 11.35 721.51 8.55 719.61 8.55 719.61 7.45 721.56 7.45 721.71 5.2 723.16 4.95 723.36 4.95 723.36 5.05Q723.26 5.2 723.21 5.35L723.21 5.35Q723.11 5.5 723.11 5.75L723.11 5.75 722.91 7.45 725.71 7.45 725.71 8.55 722.81 8.55 722.66 11.45Q722.61 12.2 722.61 12.4L722.61 12.4Q722.61 13.9 722.96 14.45L722.96 14.45Q723.31 14.95 724.06 14.95L724.06 14.95Q724.61 14.95 725.11 14.75L725.11 14.75Q725.56 14.55 726.16 14.1L726.16 14.1ZM751.46 0L749.96 0 749.96-29.5 751.46-29.5 751.46 0ZM758.96 0L757.46 0 757.46-29.5 758.96-29.5 758.96 0ZM761.96 0L760.46 0 760.46-29.5 761.96-29.5 761.96 0ZM769.46 0L767.96 0 767.96-29.5 769.46-29.5 769.46 0ZM776.96 0L775.46 0 775.46-29.5 776.96-29.5 776.96 0ZM782.96 0L778.46 0 778.46-29.5 782.96-29.5 782.96 0ZM790.46 0L788.96 0 788.96-29.5 790.46-29.5 790.46 0ZM796.46 0L791.96 0 791.96-29.5 796.46-29.5 796.46 0ZM799.46 0L797.96 0 797.96-29.5 799.46-29.5 799.46 0ZM802.46 0L800.96 0 800.96-29.5 802.46-29.5 802.46 0ZM779.21 7.45L780.56 7.45Q780.41 8.2 780.21 8.95L780.21 8.95Q779.96 9.7 779.56 10.95L779.56 10.95 777.41 16.9Q777.01 18.1 776.31 18.65L776.31 18.65Q775.61 19.2 774.66 19.2L774.66 19.2Q773.46 19.2 772.71 18.45L772.71 18.45 773.31 17.55 773.41 17.4 773.51 17.45Q773.56 17.65 773.66 17.75L773.66 17.75Q773.76 17.9 774.01 18L774.01 18Q774.36 18.1 774.76 18.1L774.76 18.1Q775.41 18.1 775.86 17.6L775.86 17.6Q776.26 17.1 776.66 16L776.66 16 773.16 7.45 774.56 7.45 777.21 14.25 778.31 10.85Q778.71 9.55 778.91 8.9L778.91 8.9Q779.11 8.2 779.21 7.45L779.21 7.45Z" opacity="1" transform="matrix(1,0,0,1,0,0)" fill="#ffffff" class="slogan-text-1" data-fill-palette-color="secondary" id="text-1"></path></svg></g></svg></g></svg></g></svg></g></svg></g></svg></g></svg></g></svg></g><defs></defs></svg><rect width="576" height="360" fill="none" stroke="none" visibility="hidden"></rect></g></svg></g></svg>