<svg xmlns="http://www.w3.org/2000/svg" version="1.1" xmlns:xlink="http://www.w3.org/1999/xlink" xmlns:svgjs="http://svgjs.dev/svgjs" width="1500" height="1500" viewBox="0 0 1500 1500"><rect width="1500" height="1500" fill="#3b4131"></rect><g transform="matrix(0.6666666666666666,0,0,0.6666666666666666,249.39393939393938,438.5856950067477)"><svg viewBox="0 0 396 247" data-background-color="#3b4131" preserveAspectRatio="xMidYMid meet" height="935" width="1500" xmlns="http://www.w3.org/2000/svg" xmlns:xlink="http://www.w3.org/1999/xlink"><g id="tight-bounds" transform="matrix(1,0,0,1,0.2400000000000091,-0.09999999999999432)"><svg viewBox="0 0 395.52 247.2" height="247.2" width="395.52"><g><svg></svg></g><g><svg viewBox="0 0 395.52 247.2" height="247.2" width="395.52"><mask id="f2ecc415-0dec-4c4f-b2c4-f6d793792410"><rect width="640" height="400" fill="white"></rect><g transform="matrix(1,0,0,1,93.8083930593107,37.08)"><svg viewBox="0 0 207.90321388137858 173.04" height="173.04" width="207.90321388137858"><g><svg viewBox="0 0 207.90321388137858 173.04" height="173.04" width="207.90321388137858"><g><svg viewBox="0 0 269.15718204580816 224.02231265063796" height="173.04" width="207.90321388137858"><g><svg viewBox="0 0 269.15718204580816 224.02231265063796" height="224.02231265063796" width="269.15718204580816"><g id="SvgjsG1680"><svg viewBox="0 0 269.15718204580816 224.02231265063796" height="224.02231265063796" width="269.15718204580816" id="SvgjsSvg1679"><g><svg viewBox="0 0 269.15718204580816 171.9706128" height="171.9706128" width="269.15718204580816"><g transform="matrix(1,0,0,1,0,0)"><svg width="269.15718204580816" viewBox="-0.75 -39.4 68.53999999999999 44.16" height="171.9706128" data-palette-color="#fff6db"><path d="M31.3-17.5L31.3-17.5Q31.3-15.09 30.68-12.85 30.05-10.62 28.91-8.68 27.76-6.74 26.17-5.14 24.58-3.54 22.63-2.39 20.68-1.25 18.44-0.62 16.21 0 13.79 0L13.79 0 3.25 0 3.25-35.01 13.79-35.01Q16.21-35.01 18.44-34.39 20.68-33.76 22.63-32.62 24.58-31.47 26.17-29.87 27.76-28.27 28.91-26.33 30.05-24.39 30.68-22.16 31.3-19.92 31.3-17.5ZM24.29-17.5L24.29-17.5Q24.29-19.68 23.47-21.58 22.66-23.49 21.23-24.91 19.8-26.34 17.88-27.17 15.97-28 13.79-28L13.79-28 10.3-28 10.3-7.01 13.79-7.01Q15.97-7.01 17.88-7.82 19.8-8.64 21.23-10.07 22.66-11.5 23.47-13.42 24.29-15.33 24.29-17.5ZM63.79-17.36L63.79-3.54Q61.35-1.46 58.35-0.35 55.34 0.76 52.1 0.76L52.1 0.76Q49.61 0.76 47.3 0.11 44.99-0.54 42.99-1.72 40.99-2.91 39.33-4.55 37.67-6.2 36.5-8.22 35.32-10.23 34.68-12.55 34.03-14.87 34.03-17.36L34.03-17.36Q34.03-19.85 34.68-22.14 35.32-24.44 36.5-26.45 37.67-28.47 39.33-30.11 40.99-31.76 42.99-32.93 44.99-34.11 47.3-34.75 49.61-35.4 52.1-35.4L52.1-35.4Q55.34-35.4 58.35-34.29 61.35-33.18 63.79-31.1L63.79-31.1 60.13-25Q58.54-26.61 56.47-27.53 54.39-28.44 52.1-28.44L52.1-28.44Q49.8-28.44 47.79-27.56 45.77-26.68 44.26-25.18 42.75-23.68 41.87-21.67 40.99-19.65 40.99-17.36L40.99-17.36Q40.99-15.04 41.87-13.01 42.75-10.99 44.26-9.47 45.77-7.96 47.79-7.08 49.8-6.2 52.1-6.2L52.1-6.2Q53.42-6.2 54.66-6.52 55.91-6.84 57.03-7.4L57.03-7.4 57.03-17.36 63.79-17.36Z" opacity="1" transform="matrix(1,0,0,1,0,0)" fill="black" class="wordmark-text-0" id="SvgjsPath1678" stroke-width="7" stroke="black" stroke-linejoin="round"></path></svg></g></svg></g><g transform="matrix(1,0,0,1,3.5,205.983825881087)"><svg viewBox="0 0 262.15718204580816 18.038486769550975" height="18.038486769550975" width="262.15718204580816"><g transform="matrix(1,0,0,1,0,0)"><svg width="262.15718204580816" viewBox="-4 -33.5 810.5 56.7" height="18.038486769550975" data-palette-color="#fff6db"><path d="M4.5 0L0 0 0-29.5 4.5-29.5 4.5 0ZM10.5 0L6 0 6-29.5 10.5-29.5 10.5 0ZM13.5 0L12 0 12-29.5 13.5-29.5 13.5 0ZM16.5 0L15 0 15-29.5 16.5-29.5 16.5 0ZM24 0L22.5 0 22.5-29.5 24-29.5 24 0ZM8.85 15.95L8.85 4.35 9.9 4.35 12.75 10.05 15.65 4.35 16.65 4.35 16.65 15.95 15.4 15.95 15.4 7.2 12.9 11.9 12.4 11.9 10.05 7.25 10.05 15.95 8.85 15.95ZM27 0L25.5 0 25.5-29.5 27-29.5 27 0ZM34.5 0L33 0 33-29.5 34.5-29.5 34.5 0ZM37.5 0L36 0 36-29.5 37.5-29.5 37.5 0ZM45 0L43.5 0 43.5-29.5 45-29.5 45 0ZM52.5 0L51 0 51-29.5 52.5-29.5 52.5 0ZM58.5 0L54 0 54-29.5 58.5-29.5 58.5 0ZM61.5 0L60 0 60-29.5 61.5-29.5 61.5 0ZM64.5 0L63 0 63-29.5 64.5-29.5 64.5 0ZM72 0L70.5 0 70.5-29.5 72-29.5 72 0ZM78 0L73.5 0 73.5-29.5 78-29.5 78 0ZM52.4 7.25L52.4 7.25Q54.2 7.25 55.15 8.2L55.15 8.2Q56.1 9.15 56.1 11.45L56.1 11.45 56.1 15.95 54.65 15.95 54.65 14.65Q53.9 16.15 51.75 16.15L51.75 16.15Q50.35 16.15 49.55 15.5L49.55 15.5Q48.75 14.85 48.75 13.8L48.75 13.8Q48.75 12.9 49.35 12.25L49.35 12.25Q49.9 11.6 50.9 11.2L50.9 11.2Q51.85 10.85 53.05 10.85L53.05 10.85Q54.1 10.85 54.95 10.95L54.95 10.95Q54.85 9.55 54.2 8.95L54.2 8.95Q53.55 8.35 52.3 8.35L52.3 8.35Q51.65 8.35 51.1 8.6L51.1 8.6Q50.5 8.85 50 9.3L50 9.3 49.35 8.45Q50.55 7.25 52.4 7.25ZM51.9 15.15L51.9 15.15Q53.3 15.15 54.1 14.3L54.1 14.3Q54.9 13.5 54.95 12L54.95 12Q54.1 11.85 53.15 11.85L53.15 11.85Q51.75 11.85 50.9 12.35L50.9 12.35Q50.1 12.8 50.1 13.75L50.1 13.75Q50.1 15.15 51.9 15.15ZM81 0L79.5 0 79.5-29.5 81-29.5 81 0ZM88.5 0L87 0 87-29.5 88.5-29.5 88.5 0ZM91.5 0L90 0 90-29.5 91.5-29.5 91.5 0ZM99 0L97.5 0 97.5-29.5 99-29.5 99 0ZM106.5 0L105 0 105-29.5 106.5-29.5 106.5 0ZM112.5 0L108 0 108-29.5 112.5-29.5 112.5 0ZM115.5 0L114 0 114-29.5 115.5-29.5 115.5 0ZM118.5 0L117 0 117-29.5 118.5-29.5 118.5 0ZM121.5 0L120 0 120-29.5 121.5-29.5 121.5 0ZM132 0L127.5 0 127.5-29.5 132-29.5 132 0ZM109.05 16L105.55 11.7 104.45 12.75 104.45 15.95 103.1 15.95 103.1 3.6 104.6 3.6 104.6 3.7Q104.5 3.85 104.45 3.95L104.45 3.95Q104.45 4.1 104.45 4.4L104.45 4.4 104.45 11.35 108.7 7.4Q109.15 7.5 109.7 7.5L109.7 7.5 110.15 7.5 106.6 10.9 110.75 15.95 109.05 16ZM135 0L133.5 0 133.5-29.5 135-29.5 135 0ZM142.5 0L141 0 141-29.5 142.5-29.5 142.5 0ZM145.5 0L144 0 144-29.5 145.5-29.5 145.5 0ZM153 0L151.5 0 151.5-29.5 153-29.5 153 0ZM160.5 0L159 0 159-29.5 160.5-29.5 160.5 0ZM166.5 0L162 0 162-29.5 166.5-29.5 166.5 0ZM169.5 0L168 0 168-29.5 169.5-29.5 169.5 0ZM175.5 0L171 0 171-29.5 175.5-29.5 175.5 0ZM183 0L181.5 0 181.5-29.5 183-29.5 183 0ZM186 0L184.5 0 184.5-29.5 186-29.5 186 0ZM160.9 16.15L160.9 16.15Q159 16.15 157.9 15L157.9 15Q156.75 13.85 156.75 11.75L156.75 11.75Q156.75 10.35 157.3 9.3L157.3 9.3Q157.8 8.3 158.7 7.8L158.7 7.8Q159.55 7.25 160.65 7.25L160.65 7.25Q162.2 7.25 163.15 8.25L163.15 8.25Q164.1 9.3 164.1 11.3L164.1 11.3Q164.1 11.5 164.1 11.9L164.1 11.9 158.05 11.9Q158.1 13.45 158.9 14.25L158.9 14.25Q159.7 15.05 160.95 15.05L160.95 15.05Q162.3 15.05 163.15 14.1L163.15 14.1 163.9 14.85Q162.8 16.15 160.9 16.15ZM158.1 10.85L162.75 10.85Q162.75 9.65 162.15 8.95L162.15 8.95Q161.55 8.25 160.55 8.25L160.55 8.25Q159.65 8.25 158.95 8.9L158.95 8.9Q158.25 9.55 158.1 10.85L158.1 10.85ZM189 0L187.5 0 187.5-29.5 189-29.5 189 0ZM199.5 0L195 0 195-29.5 199.5-29.5 199.5 0ZM202.5 0L201 0 201-29.5 202.5-29.5 202.5 0ZM208.5 0L204 0 204-29.5 208.5-29.5 208.5 0ZM211.5 0L210 0 210-29.5 211.5-29.5 211.5 0ZM214.5 0L213 0 213-29.5 214.5-29.5 214.5 0ZM222 0L220.5 0 220.5-29.5 222-29.5 222 0ZM225 0L223.5 0 223.5-29.5 225-29.5 225 0ZM232.5 0L231 0 231-29.5 232.5-29.5 232.5 0ZM240 0L238.5 0 238.5-29.5 240-29.5 240 0ZM243 0L241.5 0 241.5-29.5 243-29.5 243 0ZM249 0L244.5 0 244.5-29.5 249-29.5 249 0ZM252 0L250.5 0 250.5-29.5 252-29.5 252 0ZM262.5 0L258 0 258-29.5 262.5-29.5 262.5 0ZM265.5 0L264 0 264-29.5 265.5-29.5 265.5 0ZM237.2 15.95L237.2 14.85 239.4 14.85 239.4 8.55 237.3 8.55 237.3 7.45 240.7 7.45 240.7 14.85 242.7 14.85 242.7 15.95 237.2 15.95ZM240 5.65L240 5.65Q239.6 5.65 239.3 5.4L239.3 5.4Q239.05 5.1 239.05 4.7L239.05 4.7Q239.05 4.3 239.3 4.05L239.3 4.05Q239.55 3.75 240 3.75L240 3.75Q240.35 3.75 240.65 4.05L240.65 4.05Q240.95 4.35 240.95 4.7L240.95 4.7Q240.95 5.1 240.65 5.4L240.65 5.4Q240.35 5.65 240 5.65ZM268.5 0L267 0 267-29.5 268.5-29.5 268.5 0ZM276 0L274.5 0 274.5-29.5 276-29.5 276 0ZM279 0L277.5 0 277.5-29.5 279-29.5 279 0ZM286.5 0L285 0 285-29.5 286.5-29.5 286.5 0ZM294 0L292.5 0 292.5-29.5 294-29.5 294 0ZM297 0L295.5 0 295.5-29.5 297-29.5 297 0ZM300 0L298.5 0 298.5-29.5 300-29.5 300 0ZM306 0L301.5 0 301.5-29.5 306-29.5 306 0ZM312 0L307.5 0 307.5-29.5 312-29.5 312 0ZM319.5 0L318 0 318-29.5 319.5-29.5 319.5 0ZM297.2 14.1L297.6 15.15Q296.4 16.1 294.9 16.1L294.9 16.1Q293.5 16.1 292.9 15.25L292.9 15.25Q292.3 14.35 292.3 12.45L292.3 12.45Q292.3 12.1 292.35 11.35L292.35 11.35 292.55 8.55 290.65 8.55 290.65 7.45 292.6 7.45 292.75 5.2 294.2 4.95 294.4 4.95 294.4 5.05Q294.3 5.2 294.25 5.35L294.25 5.35Q294.15 5.5 294.15 5.75L294.15 5.75 293.95 7.45 296.75 7.45 296.75 8.55 293.85 8.55 293.7 11.45Q293.65 12.2 293.65 12.4L293.65 12.4Q293.65 13.9 294 14.45L294 14.45Q294.35 14.95 295.1 14.95L295.1 14.95Q295.65 14.95 296.15 14.75L296.15 14.75Q296.6 14.55 297.2 14.1L297.2 14.1ZM322.5 0L321 0 321-29.5 322.5-29.5 322.5 0ZM333 0L328.5 0 328.5-29.5 333-29.5 333 0ZM336 0L334.5 0 334.5-29.5 336-29.5 336 0ZM342 0L337.5 0 337.5-29.5 342-29.5 342 0ZM345 0L343.5 0 343.5-29.5 345-29.5 345 0ZM348 0L346.5 0 346.5-29.5 348-29.5 348 0ZM355.5 0L354 0 354-29.5 355.5-29.5 355.5 0ZM358.5 0L357 0 357-29.5 358.5-29.5 358.5 0ZM366 0L364.5 0 364.5-29.5 366-29.5 366 0ZM373.5 0L372 0 372-29.5 373.5-29.5 373.5 0ZM379.5 0L375 0 375-29.5 379.5-29.5 379.5 0ZM382.5 0L381 0 381-29.5 382.5-29.5 382.5 0ZM385.5 0L384 0 384-29.5 385.5-29.5 385.5 0ZM393 0L391.5 0 391.5-29.5 393-29.5 393 0ZM399 0L394.5 0 394.5-29.5 399-29.5 399 0ZM373.4 7.25L373.4 7.25Q375.2 7.25 376.15 8.2L376.15 8.2Q377.1 9.15 377.1 11.45L377.1 11.45 377.1 15.95 375.65 15.95 375.65 14.65Q374.9 16.15 372.75 16.15L372.75 16.15Q371.35 16.15 370.55 15.5L370.55 15.5Q369.75 14.85 369.75 13.8L369.75 13.8Q369.75 12.9 370.35 12.25L370.35 12.25Q370.9 11.6 371.9 11.2L371.9 11.2Q372.85 10.85 374.05 10.85L374.05 10.85Q375.1 10.85 375.95 10.95L375.95 10.95Q375.85 9.55 375.2 8.95L375.2 8.95Q374.55 8.35 373.3 8.35L373.3 8.35Q372.65 8.35 372.1 8.6L372.1 8.6Q371.5 8.85 371 9.3L371 9.3 370.35 8.45Q371.55 7.25 373.4 7.25ZM372.9 15.15L372.9 15.15Q374.3 15.15 375.1 14.3L375.1 14.3Q375.9 13.5 375.95 12L375.95 12Q375.1 11.85 374.15 11.85L374.15 11.85Q372.75 11.85 371.9 12.35L371.9 12.35Q371.1 12.8 371.1 13.75L371.1 13.75Q371.1 15.15 372.9 15.15ZM402 0L400.5 0 400.5-29.5 402-29.5 402 0ZM412.5 0L408 0 408-29.5 412.5-29.5 412.5 0ZM415.5 0L414 0 414-29.5 415.5-29.5 415.5 0ZM421.5 0L417 0 417-29.5 421.5-29.5 421.5 0ZM424.5 0L423 0 423-29.5 424.5-29.5 424.5 0ZM427.5 0L426 0 426-29.5 427.5-29.5 427.5 0ZM435 0L433.5 0 433.5-29.5 435-29.5 435 0ZM438 0L436.5 0 436.5-29.5 438-29.5 438 0ZM445.5 0L444 0 444-29.5 445.5-29.5 445.5 0ZM453 0L451.5 0 451.5-29.5 453-29.5 453 0ZM459 0L454.5 0 454.5-29.5 459-29.5 459 0ZM462 0L460.5 0 460.5-29.5 462-29.5 462 0ZM465 0L463.5 0 463.5-29.5 465-29.5 465 0ZM471 0L466.5 0 466.5-29.5 471-29.5 471 0ZM478.5 0L477 0 477-29.5 478.5-29.5 478.5 0ZM454.6 7.25L454.6 7.25Q455.95 7.25 456.85 8.2L456.85 8.2 456.25 9.2 456.2 9.4 456.05 9.3Q456 9.1 455.95 9L455.95 9Q455.85 8.85 455.6 8.7L455.6 8.7Q455.15 8.4 454.5 8.4L454.5 8.4Q453.85 8.4 453.25 8.75L453.25 8.75Q452.65 9.05 452.3 9.75L452.3 9.75Q451.9 10.45 451.9 11.45L451.9 11.45 451.9 15.95 450.55 15.95 450.55 7.45 451.95 7.45 451.9 9Q452.25 8.2 453 7.7L453 7.7Q453.75 7.25 454.6 7.25ZM481.5 0L480 0 480-29.5 481.5-29.5 481.5 0ZM489 0L487.5 0 487.5-29.5 489-29.5 489 0ZM492 0L490.5 0 490.5-29.5 492-29.5 492 0ZM499.5 0L498 0 498-29.5 499.5-29.5 499.5 0ZM507 0L505.5 0 505.5-29.5 507-29.5 507 0ZM513 0L508.5 0 508.5-29.5 513-29.5 513 0ZM516 0L514.5 0 514.5-29.5 516-29.5 516 0ZM522 0L517.5 0 517.5-29.5 522-29.5 522 0ZM529.5 0L528 0 528-29.5 529.5-29.5 529.5 0ZM532.5 0L531 0 531-29.5 532.5-29.5 532.5 0ZM507.4 16.15L507.4 16.15Q505.5 16.15 504.4 15L504.4 15Q503.25 13.85 503.25 11.75L503.25 11.75Q503.25 10.35 503.8 9.3L503.8 9.3Q504.3 8.3 505.2 7.8L505.2 7.8Q506.05 7.25 507.15 7.25L507.15 7.25Q508.7 7.25 509.65 8.25L509.65 8.25Q510.6 9.3 510.6 11.3L510.6 11.3Q510.6 11.5 510.6 11.9L510.6 11.9 504.55 11.9Q504.6 13.45 505.4 14.25L505.4 14.25Q506.2 15.05 507.45 15.05L507.45 15.05Q508.8 15.05 509.65 14.1L509.65 14.1 510.4 14.85Q509.3 16.15 507.4 16.15ZM504.6 10.85L509.25 10.85Q509.25 9.65 508.65 8.95L508.65 8.95Q508.05 8.25 507.05 8.25L507.05 8.25Q506.15 8.25 505.45 8.9L505.45 8.9Q504.75 9.55 504.6 10.85L504.6 10.85ZM535.5 0L534 0 534-29.5 535.5-29.5 535.5 0ZM543 0L541.5 0 541.5-29.5 543-29.5 543 0ZM546 0L544.5 0 544.5-29.5 546-29.5 546 0ZM553.5 0L552 0 552-29.5 553.5-29.5 553.5 0ZM561 0L559.5 0 559.5-29.5 561-29.5 561 0ZM567 0L562.5 0 562.5-29.5 567-29.5 567 0ZM570 0L568.5 0 568.5-29.5 570-29.5 570 0ZM573 0L571.5 0 571.5-29.5 573-29.5 573 0ZM580.5 0L579 0 579-29.5 580.5-29.5 580.5 0ZM586.5 0L582 0 582-29.5 586.5-29.5 586.5 0ZM560.9 7.25L560.9 7.25Q562.7 7.25 563.65 8.2L563.65 8.2Q564.6 9.15 564.6 11.45L564.6 11.45 564.6 15.95 563.15 15.95 563.15 14.65Q562.4 16.15 560.25 16.15L560.25 16.15Q558.85 16.15 558.05 15.5L558.05 15.5Q557.25 14.85 557.25 13.8L557.25 13.8Q557.25 12.9 557.85 12.25L557.85 12.25Q558.4 11.6 559.4 11.2L559.4 11.2Q560.35 10.85 561.55 10.85L561.55 10.85Q562.6 10.85 563.45 10.95L563.45 10.95Q563.35 9.55 562.7 8.95L562.7 8.95Q562.05 8.35 560.8 8.35L560.8 8.35Q560.15 8.35 559.6 8.6L559.6 8.6Q559 8.85 558.5 9.3L558.5 9.3 557.85 8.45Q559.05 7.25 560.9 7.25ZM560.4 15.15L560.4 15.15Q561.8 15.15 562.6 14.3L562.6 14.3Q563.4 13.5 563.45 12L563.45 12Q562.6 11.85 561.65 11.85L561.65 11.85Q560.25 11.85 559.4 12.35L559.4 12.35Q558.6 12.8 558.6 13.75L558.6 13.75Q558.6 15.15 560.4 15.15ZM589.5 0L588 0 588-29.5 589.5-29.5 589.5 0ZM597 0L595.5 0 595.5-29.5 597-29.5 597 0ZM600 0L598.5 0 598.5-29.5 600-29.5 600 0ZM607.5 0L606 0 606-29.5 607.5-29.5 607.5 0ZM615 0L613.5 0 613.5-29.5 615-29.5 615 0ZM618 0L616.5 0 616.5-29.5 618-29.5 618 0ZM624 0L619.5 0 619.5-29.5 624-29.5 624 0ZM627 0L625.5 0 625.5-29.5 627-29.5 627 0ZM630 0L628.5 0 628.5-29.5 630-29.5 630 0ZM640.5 0L636 0 636-29.5 640.5-29.5 640.5 0ZM611.8 15.95L611.8 14.85 614.35 14.85 614.35 4.65 611.95 4.65 611.95 3.6 615.7 3.6 615.7 14.85 618.2 14.85 618.2 15.95 611.8 15.95ZM643.5 0L642 0 642-29.5 643.5-29.5 643.5 0ZM651 0L649.5 0 649.5-29.5 651-29.5 651 0ZM654 0L652.5 0 652.5-29.5 654-29.5 654 0ZM661.5 0L660 0 660-29.5 661.5-29.5 661.5 0ZM669 0L667.5 0 667.5-29.5 669-29.5 669 0ZM672 0L670.5 0 670.5-29.5 672-29.5 672 0ZM678 0L673.5 0 673.5-29.5 678-29.5 678 0ZM681 0L679.5 0 679.5-29.5 681-29.5 681 0ZM691.5 0L687 0 687-29.5 691.5-29.5 691.5 0ZM694.5 0L693 0 693-29.5 694.5-29.5 694.5 0ZM666.2 15.95L666.2 14.85 668.4 14.85 668.4 8.55 666.3 8.55 666.3 7.45 669.7 7.45 669.7 14.85 671.7 14.85 671.7 15.95 666.2 15.95ZM669 5.65L669 5.65Q668.6 5.65 668.3 5.4L668.3 5.4Q668.05 5.1 668.05 4.7L668.05 4.7Q668.05 4.3 668.3 4.05L668.3 4.05Q668.55 3.75 669 3.75L669 3.75Q669.35 3.75 669.65 4.05L669.65 4.05Q669.95 4.35 669.95 4.7L669.95 4.7Q669.95 5.1 669.65 5.4L669.65 5.4Q669.35 5.65 669 5.65ZM697.5 0L696 0 696-29.5 697.5-29.5 697.5 0ZM705 0L703.5 0 703.5-29.5 705-29.5 705 0ZM708 0L706.5 0 706.5-29.5 708-29.5 708 0ZM715.5 0L714 0 714-29.5 715.5-29.5 715.5 0ZM723 0L721.5 0 721.5-29.5 723-29.5 723 0ZM726 0L724.5 0 724.5-29.5 726-29.5 726 0ZM729 0L727.5 0 727.5-29.5 729-29.5 729 0ZM735 0L730.5 0 730.5-29.5 735-29.5 735 0ZM741 0L736.5 0 736.5-29.5 741-29.5 741 0ZM748.5 0L747 0 747-29.5 748.5-29.5 748.5 0ZM726.2 14.1L726.6 15.15Q725.4 16.1 723.9 16.1L723.9 16.1Q722.5 16.1 721.9 15.25L721.9 15.25Q721.3 14.35 721.3 12.45L721.3 12.45Q721.3 12.1 721.35 11.35L721.35 11.35 721.55 8.55 719.65 8.55 719.65 7.45 721.6 7.45 721.75 5.2 723.2 4.95 723.4 4.95 723.4 5.05Q723.3 5.2 723.25 5.35L723.25 5.35Q723.15 5.5 723.15 5.75L723.15 5.75 722.95 7.45 725.75 7.45 725.75 8.55 722.85 8.55 722.7 11.45Q722.65 12.2 722.65 12.4L722.65 12.4Q722.65 13.9 723 14.45L723 14.45Q723.35 14.95 724.1 14.95L724.1 14.95Q724.65 14.95 725.15 14.75L725.15 14.75Q725.6 14.55 726.2 14.1L726.2 14.1ZM751.5 0L750 0 750-29.5 751.5-29.5 751.5 0ZM759 0L757.5 0 757.5-29.5 759-29.5 759 0ZM762 0L760.5 0 760.5-29.5 762-29.5 762 0ZM769.5 0L768 0 768-29.5 769.5-29.5 769.5 0ZM777 0L775.5 0 775.5-29.5 777-29.5 777 0ZM783 0L778.5 0 778.5-29.5 783-29.5 783 0ZM790.5 0L789 0 789-29.5 790.5-29.5 790.5 0ZM796.5 0L792 0 792-29.5 796.5-29.5 796.5 0ZM799.5 0L798 0 798-29.5 799.5-29.5 799.5 0ZM802.5 0L801 0 801-29.5 802.5-29.5 802.5 0ZM779.25 7.45L780.6 7.45Q780.45 8.2 780.25 8.95L780.25 8.95Q780 9.7 779.6 10.95L779.6 10.95 777.45 16.9Q777.05 18.1 776.35 18.65L776.35 18.65Q775.65 19.2 774.7 19.2L774.7 19.2Q773.5 19.2 772.75 18.45L772.75 18.45 773.35 17.55 773.45 17.4 773.55 17.45Q773.6 17.65 773.7 17.75L773.7 17.75Q773.8 17.9 774.05 18L774.05 18Q774.4 18.1 774.8 18.1L774.8 18.1Q775.45 18.1 775.9 17.6L775.9 17.6Q776.3 17.1 776.7 16L776.7 16 773.2 7.45 774.6 7.45 777.25 14.25 778.35 10.85Q778.75 9.55 778.95 8.9L778.95 8.9Q779.15 8.2 779.25 7.45L779.25 7.45Z" opacity="1" transform="matrix(1,0,0,1,0,0)" fill="black" class="slogan-text-1" id="SvgjsPath1677" stroke-width="7" stroke="black" stroke-linejoin="round"></path></svg></g></svg></g></svg></g></svg></g></svg></g></svg></g></svg></g></mask><g transform="matrix(1,0,0,1,93.8083930593107,37.08)"><svg viewBox="0 0 207.90321388137858 173.04" height="173.04" width="207.90321388137858"><g><svg viewBox="0 0 207.90321388137858 173.04" height="173.04" width="207.90321388137858"><g><svg viewBox="0 0 269.15718204580816 224.02231265063796" height="173.04" width="207.90321388137858"><g><svg viewBox="0 0 269.15718204580816 224.02231265063796" height="224.02231265063796" width="269.15718204580816"><g id="textblocktransform"><svg viewBox="0 0 269.15718204580816 224.02231265063796" height="224.02231265063796" width="269.15718204580816" id="textblock"><g><svg viewBox="0 0 269.15718204580816 171.9706128" height="171.9706128" width="269.15718204580816"><g transform="matrix(1,0,0,1,0,0)"><svg width="269.15718204580816" viewBox="-0.75 -39.4 68.53999999999999 44.16" height="171.9706128" data-palette-color="#fff6db"><path d="M31.3-17.5L31.3-17.5Q31.3-15.09 30.68-12.85 30.05-10.62 28.91-8.68 27.76-6.74 26.17-5.14 24.58-3.54 22.63-2.39 20.68-1.25 18.44-0.62 16.21 0 13.79 0L13.79 0 3.25 0 3.25-35.01 13.79-35.01Q16.21-35.01 18.44-34.39 20.68-33.76 22.63-32.62 24.58-31.47 26.17-29.87 27.76-28.27 28.91-26.33 30.05-24.39 30.68-22.16 31.3-19.92 31.3-17.5ZM24.29-17.5L24.29-17.5Q24.29-19.68 23.47-21.58 22.66-23.49 21.23-24.91 19.8-26.34 17.88-27.17 15.97-28 13.79-28L13.79-28 10.3-28 10.3-7.01 13.79-7.01Q15.97-7.01 17.88-7.82 19.8-8.64 21.23-10.07 22.66-11.5 23.47-13.42 24.29-15.33 24.29-17.5ZM63.79-17.36L63.79-3.54Q61.35-1.46 58.35-0.35 55.34 0.76 52.1 0.76L52.1 0.76Q49.61 0.76 47.3 0.11 44.99-0.54 42.99-1.72 40.99-2.91 39.33-4.55 37.67-6.2 36.5-8.22 35.32-10.23 34.68-12.55 34.03-14.87 34.03-17.36L34.03-17.36Q34.03-19.85 34.68-22.14 35.32-24.44 36.5-26.45 37.67-28.47 39.33-30.11 40.99-31.76 42.99-32.93 44.99-34.11 47.3-34.75 49.61-35.4 52.1-35.4L52.1-35.4Q55.34-35.4 58.35-34.29 61.35-33.18 63.79-31.1L63.79-31.1 60.13-25Q58.54-26.61 56.47-27.53 54.39-28.44 52.1-28.44L52.1-28.44Q49.8-28.44 47.79-27.56 45.77-26.68 44.26-25.18 42.75-23.68 41.87-21.67 40.99-19.65 40.99-17.36L40.99-17.36Q40.99-15.04 41.87-13.01 42.75-10.99 44.26-9.47 45.77-7.96 47.79-7.08 49.8-6.2 52.1-6.2L52.1-6.2Q53.42-6.2 54.66-6.52 55.91-6.84 57.03-7.4L57.03-7.4 57.03-17.36 63.79-17.36Z" opacity="1" transform="matrix(1,0,0,1,0,0)" fill="#fff6db" class="wordmark-text-0" data-fill-palette-color="primary" id="text-0"></path></svg></g></svg></g><g transform="matrix(1,0,0,1,3.5,205.983825881087)"><svg viewBox="0 0 262.15718204580816 18.038486769550975" height="18.038486769550975" width="262.15718204580816"><g transform="matrix(1,0,0,1,0,0)"><svg width="262.15718204580816" viewBox="-4 -33.5 810.5 56.7" height="18.038486769550975" data-palette-color="#fff6db"><path d="M4.5 0L0 0 0-29.5 4.5-29.5 4.5 0ZM10.5 0L6 0 6-29.5 10.5-29.5 10.5 0ZM13.5 0L12 0 12-29.5 13.5-29.5 13.5 0ZM16.5 0L15 0 15-29.5 16.5-29.5 16.5 0ZM24 0L22.5 0 22.5-29.5 24-29.5 24 0ZM8.85 15.95L8.85 4.35 9.9 4.35 12.75 10.05 15.65 4.35 16.65 4.35 16.65 15.95 15.4 15.95 15.4 7.2 12.9 11.9 12.4 11.9 10.05 7.25 10.05 15.95 8.85 15.95ZM27 0L25.5 0 25.5-29.5 27-29.5 27 0ZM34.5 0L33 0 33-29.5 34.5-29.5 34.5 0ZM37.5 0L36 0 36-29.5 37.5-29.5 37.5 0ZM45 0L43.5 0 43.5-29.5 45-29.5 45 0ZM52.5 0L51 0 51-29.5 52.5-29.5 52.5 0ZM58.5 0L54 0 54-29.5 58.5-29.5 58.5 0ZM61.5 0L60 0 60-29.5 61.5-29.5 61.5 0ZM64.5 0L63 0 63-29.5 64.5-29.5 64.5 0ZM72 0L70.5 0 70.5-29.5 72-29.5 72 0ZM78 0L73.5 0 73.5-29.5 78-29.5 78 0ZM52.4 7.25L52.4 7.25Q54.2 7.25 55.15 8.2L55.15 8.2Q56.1 9.15 56.1 11.45L56.1 11.45 56.1 15.95 54.65 15.95 54.65 14.65Q53.9 16.15 51.75 16.15L51.75 16.15Q50.35 16.15 49.55 15.5L49.55 15.5Q48.75 14.85 48.75 13.8L48.75 13.8Q48.75 12.9 49.35 12.25L49.35 12.25Q49.9 11.6 50.9 11.2L50.9 11.2Q51.85 10.85 53.05 10.85L53.05 10.85Q54.1 10.85 54.95 10.95L54.95 10.95Q54.85 9.55 54.2 8.95L54.2 8.95Q53.55 8.35 52.3 8.35L52.3 8.35Q51.65 8.35 51.1 8.6L51.1 8.6Q50.5 8.85 50 9.3L50 9.3 49.35 8.45Q50.55 7.25 52.4 7.25ZM51.9 15.15L51.9 15.15Q53.3 15.15 54.1 14.3L54.1 14.3Q54.9 13.5 54.95 12L54.95 12Q54.1 11.85 53.15 11.85L53.15 11.85Q51.75 11.85 50.9 12.35L50.9 12.35Q50.1 12.8 50.1 13.75L50.1 13.75Q50.1 15.15 51.9 15.15ZM81 0L79.5 0 79.5-29.5 81-29.5 81 0ZM88.5 0L87 0 87-29.5 88.5-29.5 88.5 0ZM91.5 0L90 0 90-29.5 91.5-29.5 91.5 0ZM99 0L97.5 0 97.5-29.5 99-29.5 99 0ZM106.5 0L105 0 105-29.5 106.5-29.5 106.5 0ZM112.5 0L108 0 108-29.5 112.5-29.5 112.5 0ZM115.5 0L114 0 114-29.5 115.5-29.5 115.5 0ZM118.5 0L117 0 117-29.5 118.5-29.5 118.5 0ZM121.5 0L120 0 120-29.5 121.5-29.5 121.5 0ZM132 0L127.5 0 127.5-29.5 132-29.5 132 0ZM109.05 16L105.55 11.7 104.45 12.75 104.45 15.95 103.1 15.95 103.1 3.6 104.6 3.6 104.6 3.7Q104.5 3.85 104.45 3.95L104.45 3.95Q104.45 4.1 104.45 4.4L104.45 4.4 104.45 11.35 108.7 7.4Q109.15 7.5 109.7 7.5L109.7 7.5 110.15 7.5 106.6 10.9 110.75 15.95 109.05 16ZM135 0L133.5 0 133.5-29.5 135-29.5 135 0ZM142.5 0L141 0 141-29.5 142.5-29.5 142.5 0ZM145.5 0L144 0 144-29.5 145.5-29.5 145.5 0ZM153 0L151.5 0 151.5-29.5 153-29.5 153 0ZM160.5 0L159 0 159-29.5 160.5-29.5 160.5 0ZM166.5 0L162 0 162-29.5 166.5-29.5 166.5 0ZM169.5 0L168 0 168-29.5 169.5-29.5 169.5 0ZM175.5 0L171 0 171-29.5 175.5-29.5 175.5 0ZM183 0L181.5 0 181.5-29.5 183-29.5 183 0ZM186 0L184.5 0 184.5-29.5 186-29.5 186 0ZM160.9 16.15L160.9 16.15Q159 16.15 157.9 15L157.9 15Q156.75 13.85 156.75 11.75L156.75 11.75Q156.75 10.35 157.3 9.3L157.3 9.3Q157.8 8.3 158.7 7.8L158.7 7.8Q159.55 7.25 160.65 7.25L160.65 7.25Q162.2 7.25 163.15 8.25L163.15 8.25Q164.1 9.3 164.1 11.3L164.1 11.3Q164.1 11.5 164.1 11.9L164.1 11.9 158.05 11.9Q158.1 13.45 158.9 14.25L158.9 14.25Q159.7 15.05 160.95 15.05L160.95 15.05Q162.3 15.05 163.15 14.1L163.15 14.1 163.9 14.85Q162.8 16.15 160.9 16.15ZM158.1 10.85L162.75 10.85Q162.75 9.65 162.15 8.95L162.15 8.95Q161.55 8.25 160.55 8.25L160.55 8.25Q159.65 8.25 158.95 8.9L158.95 8.9Q158.25 9.55 158.1 10.85L158.1 10.85ZM189 0L187.5 0 187.5-29.5 189-29.5 189 0ZM199.5 0L195 0 195-29.5 199.5-29.5 199.5 0ZM202.5 0L201 0 201-29.5 202.5-29.5 202.5 0ZM208.5 0L204 0 204-29.5 208.5-29.5 208.5 0ZM211.5 0L210 0 210-29.5 211.5-29.5 211.5 0ZM214.5 0L213 0 213-29.5 214.5-29.5 214.5 0ZM222 0L220.5 0 220.5-29.5 222-29.5 222 0ZM225 0L223.5 0 223.5-29.5 225-29.5 225 0ZM232.5 0L231 0 231-29.5 232.5-29.5 232.5 0ZM240 0L238.5 0 238.5-29.5 240-29.5 240 0ZM243 0L241.5 0 241.5-29.5 243-29.5 243 0ZM249 0L244.5 0 244.5-29.5 249-29.5 249 0ZM252 0L250.5 0 250.5-29.5 252-29.5 252 0ZM262.5 0L258 0 258-29.5 262.5-29.5 262.5 0ZM265.5 0L264 0 264-29.5 265.5-29.5 265.5 0ZM237.2 15.95L237.2 14.85 239.4 14.85 239.4 8.55 237.3 8.55 237.3 7.45 240.7 7.45 240.7 14.85 242.7 14.85 242.7 15.95 237.2 15.95ZM240 5.65L240 5.65Q239.6 5.65 239.3 5.4L239.3 5.4Q239.05 5.1 239.05 4.7L239.05 4.7Q239.05 4.3 239.3 4.05L239.3 4.05Q239.55 3.75 240 3.75L240 3.75Q240.35 3.75 240.65 4.05L240.65 4.05Q240.95 4.35 240.95 4.7L240.95 4.7Q240.95 5.1 240.65 5.4L240.65 5.4Q240.35 5.65 240 5.65ZM268.5 0L267 0 267-29.5 268.5-29.5 268.5 0ZM276 0L274.5 0 274.5-29.5 276-29.5 276 0ZM279 0L277.5 0 277.5-29.5 279-29.5 279 0ZM286.5 0L285 0 285-29.5 286.5-29.5 286.5 0ZM294 0L292.5 0 292.5-29.5 294-29.5 294 0ZM297 0L295.5 0 295.5-29.5 297-29.5 297 0ZM300 0L298.5 0 298.5-29.5 300-29.5 300 0ZM306 0L301.5 0 301.5-29.5 306-29.5 306 0ZM312 0L307.5 0 307.5-29.5 312-29.5 312 0ZM319.5 0L318 0 318-29.5 319.5-29.5 319.5 0ZM297.2 14.1L297.6 15.15Q296.4 16.1 294.9 16.1L294.9 16.1Q293.5 16.1 292.9 15.25L292.9 15.25Q292.3 14.35 292.3 12.45L292.3 12.45Q292.3 12.1 292.35 11.35L292.35 11.35 292.55 8.55 290.65 8.55 290.65 7.45 292.6 7.45 292.75 5.2 294.2 4.95 294.4 4.95 294.4 5.05Q294.3 5.2 294.25 5.35L294.25 5.35Q294.15 5.5 294.15 5.75L294.15 5.75 293.95 7.45 296.75 7.45 296.75 8.55 293.85 8.55 293.7 11.45Q293.65 12.2 293.65 12.4L293.65 12.4Q293.65 13.9 294 14.45L294 14.45Q294.35 14.95 295.1 14.95L295.1 14.95Q295.65 14.95 296.15 14.75L296.15 14.75Q296.6 14.55 297.2 14.1L297.2 14.1ZM322.5 0L321 0 321-29.5 322.5-29.5 322.5 0ZM333 0L328.5 0 328.5-29.5 333-29.5 333 0ZM336 0L334.5 0 334.5-29.5 336-29.5 336 0ZM342 0L337.5 0 337.5-29.5 342-29.5 342 0ZM345 0L343.5 0 343.5-29.5 345-29.5 345 0ZM348 0L346.5 0 346.5-29.5 348-29.5 348 0ZM355.5 0L354 0 354-29.5 355.5-29.5 355.5 0ZM358.5 0L357 0 357-29.5 358.5-29.5 358.5 0ZM366 0L364.5 0 364.5-29.5 366-29.5 366 0ZM373.5 0L372 0 372-29.5 373.5-29.5 373.5 0ZM379.5 0L375 0 375-29.5 379.5-29.5 379.5 0ZM382.5 0L381 0 381-29.5 382.5-29.5 382.5 0ZM385.5 0L384 0 384-29.5 385.5-29.5 385.5 0ZM393 0L391.5 0 391.5-29.5 393-29.5 393 0ZM399 0L394.5 0 394.5-29.5 399-29.5 399 0ZM373.4 7.25L373.4 7.25Q375.2 7.25 376.15 8.2L376.15 8.2Q377.1 9.15 377.1 11.45L377.1 11.45 377.1 15.95 375.65 15.95 375.65 14.65Q374.9 16.15 372.75 16.15L372.75 16.15Q371.35 16.15 370.55 15.5L370.55 15.5Q369.75 14.85 369.75 13.8L369.75 13.8Q369.75 12.9 370.35 12.25L370.35 12.25Q370.9 11.6 371.9 11.2L371.9 11.2Q372.85 10.85 374.05 10.85L374.05 10.85Q375.1 10.85 375.95 10.95L375.95 10.95Q375.85 9.55 375.2 8.95L375.2 8.95Q374.55 8.35 373.3 8.35L373.3 8.35Q372.65 8.35 372.1 8.6L372.1 8.6Q371.5 8.85 371 9.3L371 9.3 370.35 8.45Q371.55 7.25 373.4 7.25ZM372.9 15.15L372.9 15.15Q374.3 15.15 375.1 14.3L375.1 14.3Q375.9 13.5 375.95 12L375.95 12Q375.1 11.85 374.15 11.85L374.15 11.85Q372.75 11.85 371.9 12.35L371.9 12.35Q371.1 12.8 371.1 13.75L371.1 13.75Q371.1 15.15 372.9 15.15ZM402 0L400.5 0 400.5-29.5 402-29.5 402 0ZM412.5 0L408 0 408-29.5 412.5-29.5 412.5 0ZM415.5 0L414 0 414-29.5 415.5-29.5 415.5 0ZM421.5 0L417 0 417-29.5 421.5-29.5 421.5 0ZM424.5 0L423 0 423-29.5 424.5-29.5 424.5 0ZM427.5 0L426 0 426-29.5 427.5-29.5 427.5 0ZM435 0L433.5 0 433.5-29.5 435-29.5 435 0ZM438 0L436.5 0 436.5-29.5 438-29.5 438 0ZM445.5 0L444 0 444-29.5 445.5-29.5 445.5 0ZM453 0L451.5 0 451.5-29.5 453-29.5 453 0ZM459 0L454.5 0 454.5-29.5 459-29.5 459 0ZM462 0L460.5 0 460.5-29.5 462-29.5 462 0ZM465 0L463.5 0 463.5-29.5 465-29.5 465 0ZM471 0L466.5 0 466.5-29.5 471-29.5 471 0ZM478.5 0L477 0 477-29.5 478.5-29.5 478.5 0ZM454.6 7.25L454.6 7.25Q455.95 7.25 456.85 8.2L456.85 8.2 456.25 9.2 456.2 9.4 456.05 9.3Q456 9.1 455.95 9L455.95 9Q455.85 8.85 455.6 8.7L455.6 8.7Q455.15 8.4 454.5 8.4L454.5 8.4Q453.85 8.4 453.25 8.75L453.25 8.75Q452.65 9.05 452.3 9.75L452.3 9.75Q451.9 10.45 451.9 11.45L451.9 11.45 451.9 15.95 450.55 15.95 450.55 7.45 451.95 7.45 451.9 9Q452.25 8.2 453 7.7L453 7.7Q453.75 7.25 454.6 7.25ZM481.5 0L480 0 480-29.5 481.5-29.5 481.5 0ZM489 0L487.5 0 487.5-29.5 489-29.5 489 0ZM492 0L490.5 0 490.5-29.5 492-29.5 492 0ZM499.5 0L498 0 498-29.5 499.5-29.5 499.5 0ZM507 0L505.5 0 505.5-29.5 507-29.5 507 0ZM513 0L508.5 0 508.5-29.5 513-29.5 513 0ZM516 0L514.5 0 514.5-29.5 516-29.5 516 0ZM522 0L517.5 0 517.5-29.5 522-29.5 522 0ZM529.5 0L528 0 528-29.5 529.5-29.5 529.5 0ZM532.5 0L531 0 531-29.5 532.5-29.5 532.5 0ZM507.4 16.15L507.4 16.15Q505.5 16.15 504.4 15L504.4 15Q503.25 13.85 503.25 11.75L503.25 11.75Q503.25 10.35 503.8 9.3L503.8 9.3Q504.3 8.3 505.2 7.8L505.2 7.8Q506.05 7.25 507.15 7.25L507.15 7.25Q508.7 7.25 509.65 8.25L509.65 8.25Q510.6 9.3 510.6 11.3L510.6 11.3Q510.6 11.5 510.6 11.9L510.6 11.9 504.55 11.9Q504.6 13.45 505.4 14.25L505.4 14.25Q506.2 15.05 507.45 15.05L507.45 15.05Q508.8 15.05 509.65 14.1L509.65 14.1 510.4 14.85Q509.3 16.15 507.4 16.15ZM504.6 10.85L509.25 10.85Q509.25 9.65 508.65 8.95L508.65 8.95Q508.05 8.25 507.05 8.25L507.05 8.25Q506.15 8.25 505.45 8.9L505.45 8.9Q504.75 9.55 504.6 10.85L504.6 10.85ZM535.5 0L534 0 534-29.5 535.5-29.5 535.5 0ZM543 0L541.5 0 541.5-29.5 543-29.5 543 0ZM546 0L544.5 0 544.5-29.5 546-29.5 546 0ZM553.5 0L552 0 552-29.5 553.5-29.5 553.5 0ZM561 0L559.5 0 559.5-29.5 561-29.5 561 0ZM567 0L562.5 0 562.5-29.5 567-29.5 567 0ZM570 0L568.5 0 568.5-29.5 570-29.5 570 0ZM573 0L571.5 0 571.5-29.5 573-29.5 573 0ZM580.5 0L579 0 579-29.5 580.5-29.5 580.5 0ZM586.5 0L582 0 582-29.5 586.5-29.5 586.5 0ZM560.9 7.25L560.9 7.25Q562.7 7.25 563.65 8.2L563.65 8.2Q564.6 9.15 564.6 11.45L564.6 11.45 564.6 15.95 563.15 15.95 563.15 14.65Q562.4 16.15 560.25 16.15L560.25 16.15Q558.85 16.15 558.05 15.5L558.05 15.5Q557.25 14.85 557.25 13.8L557.25 13.8Q557.25 12.9 557.85 12.25L557.85 12.25Q558.4 11.6 559.4 11.2L559.4 11.2Q560.35 10.85 561.55 10.85L561.55 10.85Q562.6 10.85 563.45 10.95L563.45 10.95Q563.35 9.55 562.7 8.95L562.7 8.95Q562.05 8.35 560.8 8.35L560.8 8.35Q560.15 8.35 559.6 8.6L559.6 8.6Q559 8.85 558.5 9.3L558.5 9.3 557.85 8.45Q559.05 7.25 560.9 7.25ZM560.4 15.15L560.4 15.15Q561.8 15.15 562.6 14.3L562.6 14.3Q563.4 13.5 563.45 12L563.45 12Q562.6 11.85 561.65 11.85L561.65 11.85Q560.25 11.85 559.4 12.35L559.4 12.35Q558.6 12.8 558.6 13.75L558.6 13.75Q558.6 15.15 560.4 15.15ZM589.5 0L588 0 588-29.5 589.5-29.5 589.5 0ZM597 0L595.5 0 595.5-29.5 597-29.5 597 0ZM600 0L598.5 0 598.5-29.5 600-29.5 600 0ZM607.5 0L606 0 606-29.5 607.5-29.5 607.5 0ZM615 0L613.5 0 613.5-29.5 615-29.5 615 0ZM618 0L616.5 0 616.5-29.5 618-29.5 618 0ZM624 0L619.5 0 619.5-29.5 624-29.5 624 0ZM627 0L625.5 0 625.5-29.5 627-29.5 627 0ZM630 0L628.5 0 628.5-29.5 630-29.5 630 0ZM640.5 0L636 0 636-29.5 640.5-29.5 640.5 0ZM611.8 15.95L611.8 14.85 614.35 14.85 614.35 4.65 611.95 4.65 611.95 3.6 615.7 3.6 615.7 14.85 618.2 14.85 618.2 15.95 611.8 15.95ZM643.5 0L642 0 642-29.5 643.5-29.5 643.5 0ZM651 0L649.5 0 649.5-29.5 651-29.5 651 0ZM654 0L652.5 0 652.5-29.5 654-29.5 654 0ZM661.5 0L660 0 660-29.5 661.5-29.5 661.5 0ZM669 0L667.5 0 667.5-29.5 669-29.5 669 0ZM672 0L670.5 0 670.5-29.5 672-29.5 672 0ZM678 0L673.5 0 673.5-29.5 678-29.5 678 0ZM681 0L679.5 0 679.5-29.5 681-29.5 681 0ZM691.5 0L687 0 687-29.5 691.5-29.5 691.5 0ZM694.5 0L693 0 693-29.5 694.5-29.5 694.5 0ZM666.2 15.95L666.2 14.85 668.4 14.85 668.4 8.55 666.3 8.55 666.3 7.45 669.7 7.45 669.7 14.85 671.7 14.85 671.7 15.95 666.2 15.95ZM669 5.65L669 5.65Q668.6 5.65 668.3 5.4L668.3 5.4Q668.05 5.1 668.05 4.7L668.05 4.7Q668.05 4.3 668.3 4.05L668.3 4.05Q668.55 3.75 669 3.75L669 3.75Q669.35 3.75 669.65 4.05L669.65 4.05Q669.95 4.35 669.95 4.7L669.95 4.7Q669.95 5.1 669.65 5.4L669.65 5.4Q669.35 5.65 669 5.65ZM697.5 0L696 0 696-29.5 697.5-29.5 697.5 0ZM705 0L703.5 0 703.5-29.5 705-29.5 705 0ZM708 0L706.5 0 706.5-29.5 708-29.5 708 0ZM715.5 0L714 0 714-29.5 715.5-29.5 715.5 0ZM723 0L721.5 0 721.5-29.5 723-29.5 723 0ZM726 0L724.5 0 724.5-29.5 726-29.5 726 0ZM729 0L727.5 0 727.5-29.5 729-29.5 729 0ZM735 0L730.5 0 730.5-29.5 735-29.5 735 0ZM741 0L736.5 0 736.5-29.5 741-29.5 741 0ZM748.5 0L747 0 747-29.5 748.5-29.5 748.5 0ZM726.2 14.1L726.6 15.15Q725.4 16.1 723.9 16.1L723.9 16.1Q722.5 16.1 721.9 15.25L721.9 15.25Q721.3 14.35 721.3 12.45L721.3 12.45Q721.3 12.1 721.35 11.35L721.35 11.35 721.55 8.55 719.65 8.55 719.65 7.45 721.6 7.45 721.75 5.2 723.2 4.95 723.4 4.95 723.4 5.05Q723.3 5.2 723.25 5.35L723.25 5.35Q723.15 5.5 723.15 5.75L723.15 5.75 722.95 7.45 725.75 7.45 725.75 8.55 722.85 8.55 722.7 11.45Q722.65 12.2 722.65 12.4L722.65 12.4Q722.65 13.9 723 14.45L723 14.45Q723.35 14.95 724.1 14.95L724.1 14.95Q724.65 14.95 725.15 14.75L725.15 14.75Q725.6 14.55 726.2 14.1L726.2 14.1ZM751.5 0L750 0 750-29.5 751.5-29.5 751.5 0ZM759 0L757.5 0 757.5-29.5 759-29.5 759 0ZM762 0L760.5 0 760.5-29.5 762-29.5 762 0ZM769.5 0L768 0 768-29.5 769.5-29.5 769.5 0ZM777 0L775.5 0 775.5-29.5 777-29.5 777 0ZM783 0L778.5 0 778.5-29.5 783-29.5 783 0ZM790.5 0L789 0 789-29.5 790.5-29.5 790.5 0ZM796.5 0L792 0 792-29.5 796.5-29.5 796.5 0ZM799.5 0L798 0 798-29.5 799.5-29.5 799.5 0ZM802.5 0L801 0 801-29.5 802.5-29.5 802.5 0ZM779.25 7.45L780.6 7.45Q780.45 8.2 780.25 8.95L780.25 8.95Q780 9.7 779.6 10.95L779.6 10.95 777.45 16.9Q777.05 18.1 776.35 18.65L776.35 18.65Q775.65 19.2 774.7 19.2L774.7 19.2Q773.5 19.2 772.75 18.45L772.75 18.45 773.35 17.55 773.45 17.4 773.55 17.45Q773.6 17.65 773.7 17.75L773.7 17.75Q773.8 17.9 774.05 18L774.05 18Q774.4 18.1 774.8 18.1L774.8 18.1Q775.45 18.1 775.9 17.6L775.9 17.6Q776.3 17.1 776.7 16L776.7 16 773.2 7.45 774.6 7.45 777.25 14.25 778.35 10.85Q778.75 9.55 778.95 8.9L778.95 8.9Q779.15 8.2 779.25 7.45L779.25 7.45Z" opacity="1" transform="matrix(1,0,0,1,0,0)" fill="#fff6db" class="slogan-text-1" data-fill-palette-color="secondary" id="text-1"></path></svg></g></svg></g></svg></g></svg></g></svg></g></svg></g></svg></g><g mask="url(#f2ecc415-0dec-4c4f-b2c4-f6d793792410)"><g transform="matrix(5.208045708459888, 0, 0, 5.208045708459888, 75.17562413712537, 1)"><svg xmlns="http://www.w3.org/2000/svg" xmlns:xlink="http://www.w3.org/1999/xlink" version="1.1" x="0" y="0" viewBox="0.46199999999999974 0.347 47.075 47.080999999999996" enable-background="new 0 0 48 48" xml:space="preserve" height="47.080999999999996" width="47.075" class="icon-none" data-fill-palette-color="accent" id="none"><path d="M24 47.424c0.008 0 0.015 0 0.022 0 0.01 0 0.02 0.004 0.029 0.004 0.001 0 0.001 0 0.002 0s0.001 0 0.001 0c0.015 0 0.03-0.006 0.045-0.006 12.933-0.055 23.438-10.59 23.438-23.537 0-12.915-10.456-23.43-23.347-23.533-0.005 0-0.011 0-0.015 0C24.117 0.351 24.06 0.347 24 0.347c-12.979 0-23.538 10.56-23.538 23.538C0.462 36.865 11.021 47.424 24 47.424zM44.374 23.885c0 2.675-0.523 5.228-1.466 7.57-1.109-0.391-2.838-0.938-5.087-1.461 0.467-1.98 0.725-4.025 0.725-6.109 0-2.11-0.265-4.183-0.744-6.188 1.665-0.393 3.36-0.871 5.085-1.439C43.842 18.615 44.374 21.189 44.374 23.885zM35.381 23.885c0 1.869-0.235 3.703-0.66 5.476-2.625-0.463-5.707-0.818-9.138-0.896v-9.169c2.859-0.078 5.917-0.371 9.122-0.951C35.141 20.138 35.381 21.994 35.381 23.885zM22.418 42.912c-3.653-2.662-6.427-6.299-8.052-10.436 2.816-0.48 5.512-0.721 8.052-0.793V42.912zM25.583 42.986V31.68c3.041 0.076 5.792 0.381 8.166 0.775C32.11 36.641 29.295 40.313 25.583 42.986zM25.583 16.092V4.785c3.705 2.67 6.518 6.335 8.159 10.511C30.886 15.784 28.153 16.024 25.583 16.092zM22.418 4.859v11.232c-3-0.082-5.714-0.385-8.061-0.774C15.98 11.171 18.758 7.527 22.418 4.859zM22.418 19.3v9.176c-2.83 0.082-5.852 0.369-9.018 0.943-0.435-1.791-0.674-3.645-0.674-5.535 0-1.869 0.234-3.703 0.66-5.478C15.986 18.865 19.027 19.217 22.418 19.3zM10.304 30.066c-1.695 0.4-3.424 0.889-5.18 1.473-0.963-2.365-1.497-4.947-1.497-7.654 0-2.688 0.527-5.252 1.478-7.604 1.102 0.393 2.868 0.955 5.181 1.494-0.467 1.98-0.724 4.025-0.724 6.109C9.562 25.994 9.825 28.063 10.304 30.066zM6.555 34.396c1.58-0.51 3.137-0.932 4.667-1.283 1.434 3.883 3.756 7.396 6.792 10.246C13.187 41.873 9.12 38.639 6.555 34.396zM30.149 43.309c3.021-2.852 5.329-6.361 6.752-10.238 1.974 0.445 3.53 0.906 4.584 1.258C38.952 38.555 34.931 41.791 30.149 43.309zM41.464 13.405c-1.549 0.497-3.076 0.91-4.578 1.255-1.425-3.86-3.727-7.355-6.736-10.197C34.916 5.975 38.929 9.197 41.464 13.405zM18.015 4.411c-3.049 2.861-5.378 6.39-6.81 10.291-2.03-0.457-3.62-0.935-4.674-1.287C9.095 9.153 13.172 5.903 18.015 4.411z" fill="#bbaefe" data-fill-palette-color="accent"></path></svg></g></g></svg></g><defs></defs></svg><rect width="395.52" height="247.2" fill="none" stroke="none" visibility="hidden"></rect></g></svg></g></svg>
